PathFileType	4	(X/Y/Z)	C:/Users/Rosti/Documents/GitHub/TechForParalysis/Code/Model/04122019 - Marker Volunteer01/Rosti Data/New Session 103.trc	
DataRate	CameraRate	NumFrames	NumMarkers	Units	OrigDataRate	OrigDataStartFrame	OrigNumFrames	
100.00	100.00	14	14	mm	100.00	311	620	
Frame#	Time	C7			PX			T8			IJ			SC			AC			AI			TS			AA			GH			LE			ME			US			RS			
		X1	Y1	Z1	X2	Y2	Z2	X3	Y3	Z3	X4	Y4	Z4	X5	Y5	Z5	X6	Y6	Z6	X7	Y7	Z7	X8	Y8	Z8	X9	Y9	Z9	X10	Y10	Z10	X11	Y11	Z11	X12	Y12	Z12	X13	Y13	Z13	X14	Y14	Z14	

311	3.1	15.4701	1534.32	697.094	-15.2789	1292.06	463.155	10.5876	1319.71	763.839	-12.1515	1434.98	532.084	13.0444	1442.47	536.712	159.483	1474.02	602.845	97.4904	1453.03	732.707	95.1715	1337.13	763.402	214.04	1427.02	666.461	221.498	1443.27	624.94	293.266	1212.63	461.507	197.655	1176.3	436.147	170.84	1443.65	442.411	234.237	1445.05	488.509
312	3.11	15.456	1534.3	697.072	-15.2814	1292.04	463.143	10.5886	1319.7	763.814	-12.1894	1434.98	532.046	13.0301	1442.46	536.696	159.47	1474.02	602.797	97.4774	1453.03	732.667	95.1749	1337.14	763.368	214.021	1427.04	666.425	221.506	1443.3	624.891	293.208	1212.6	461.51	197.56	1176.31	436.196	170.66	1443.57	442.147	234.126	1445.06	488.162
313	3.12	15.4452	1534.29	697.048	-15.2876	1292.03	463.128	10.592	1319.69	763.798	-12.227	1434.98	532.005	12.9902	1442.48	536.629	159.463	1474.04	602.744	97.4641	1453.02	732.629	95.1726	1337.14	763.331	214.013	1427.06	666.383	221.52	1443.32	624.843	293.154	1212.57	461.506	197.481	1176.28	436.232	170.494	1443.49	441.939	234.036	1445.06	487.878
314	3.13	15.4364	1534.28	697.023	-15.2969	1292.02	463.107	10.5976	1319.69	763.791	-12.2638	1434.98	531.963	12.9524	1442.5	536.569	159.455	1474.06	602.692	97.4523	1453.02	732.592	95.1663	1337.13	763.29	214.003	1427.07	666.333	221.538	1443.35	624.798	293.108	1212.54	461.491	197.433	1176.18	436.272	170.347	1443.42	441.78	233.96	1445.07	487.655
315	3.14	15.4258	1534.29	697.001	-15.3084	1292.01	463.081	10.6052	1319.7	763.792	-12.2996	1434.99	531.922	12.9251	1442.51	536.528	159.443	1474.09	602.645	97.4417	1453.02	732.556	95.1592	1337.12	763.247	213.989	1427.09	666.278	221.553	1443.39	624.755	293.065	1212.51	461.462	197.427	1176	436.326	170.224	1443.37	441.667	233.894	1445.08	487.486
316	3.15	15.4092	1534.32	696.985	-15.3227	1292.01	463.048	10.6147	1319.7	763.8	-12.3349	1435	531.88	12.906	1442.52	536.5	159.43	1474.11	602.601	97.431	1453.03	732.52	95.1545	1337.12	763.201	213.974	1427.1	666.215	221.563	1443.43	624.711	293.013	1212.49	461.417	197.457	1175.78	436.395	170.123	1443.34	441.598	233.829	1445.08	487.36
317	3.16	15.3847	1534.36	696.974	-15.341	1292.02	463.01	10.6261	1319.71	763.815	-12.3703	1435.01	531.839	12.8874	1442.53	536.475	159.416	1474.15	602.558	97.4204	1453.05	732.481	95.1548	1337.12	763.153	213.964	1427.11	666.149	221.568	1443.47	624.664	292.931	1212.46	461.36	197.498	1175.54	436.465	170.036	1443.33	441.564	233.75	1445.07	487.27
318	3.17	15.3546	1534.4	696.964	-15.3635	1292.03	462.967	10.6392	1319.72	763.836	-12.4066	1435.02	531.799	12.861	1442.54	536.448	159.399	1474.18	602.51	97.4102	1453.08	732.439	95.1609	1337.12	763.104	213.957	1427.12	666.083	221.571	1443.51	624.616	292.809	1212.45	461.295	197.521	1175.35	436.515	169.948	1443.32	441.555	233.643	1445.06	487.21
319	3.18	15.3252	1534.43	696.944	-15.3903	1292.03	462.919	10.6536	1319.74	763.862	-12.4452	1435.03	531.76	12.8295	1442.55	536.418	159.374	1474.2	602.459	97.4008	1453.1	732.393	95.1715	1337.13	763.054	213.951	1427.14	666.019	221.574	1443.54	624.567	292.673	1212.44	461.221	197.506	1175.23	436.53	169.847	1443.29	441.56	233.512	1445.05	487.177
320	3.19	15.3031	1534.44	696.908	-15.4224	1292.04	462.87	10.6684	1319.75	763.892	-12.4877	1435.04	531.722	12.8007	1442.55	536.385	159.345	1474.21	602.406	97.3932	1453.11	732.343	95.1842	1337.15	763.002	213.941	1427.16	665.957	221.574	1443.56	624.516	292.55	1212.44	461.138	197.45	1175.18	436.512	169.727	1443.25	441.574	233.375	1445.03	487.163
321	3.2	15.2902	1534.42	696.857	-15.4579	1292.04	462.826	10.6828	1319.76	763.924	-12.5354	1435.05	531.685	12.7738	1442.55	536.351	159.318	1474.21	602.352	97.3885	1453.12	732.291	95.1959	1337.16	762.949	213.924	1427.17	665.891	221.575	1443.57	624.456	292.449	1212.44	461.051	197.36	1175.17	436.474	169.592	1443.21	441.594	233.257	1445.01	487.161
322	3.21	15.2838	1534.4	696.8	-15.4921	1292.03	462.793	10.6955	1319.78	763.956	-12.5887	1435.06	531.65	12.741	1442.56	536.321	159.295	1474.21	602.298	97.3863	1453.12	732.236	95.2045	1337.17	762.895	213.9	1427.17	665.815	221.58	1443.57	624.386	292.365	1212.43	460.964	197.249	1175.18	436.431	169.452	1443.18	441.61	233.171	1444.98	487.158
323	3.22	15.2778	1534.38	696.741	-15.5232	1292.02	462.771	10.7053	1319.8	763.988	-12.6468	1435.06	531.617	12.7045	1442.56	536.295	159.273	1474.2	602.241	97.383	1453.12	732.179	95.2088	1337.18	762.843	213.874	1427.17	665.73	221.586	1443.58	624.311	292.288	1212.42	460.882	197.133	1175.18	436.395	169.311	1443.15	441.607	233.106	1444.95	487.141
324	3.23	15.2656	1534.37	696.687	-15.5538	1292	462.758	10.7109	1319.81	764.018	-12.7087	1435.05	531.585	12.6734	1442.56	536.27	159.245	1474.2	602.182	97.3726	1453.13	732.121	95.209	1337.18	762.793	213.857	1427.17	665.64	221.586	1443.59	624.24	292.207	1212.42	460.804	197.03	1175.17	436.373	169.164	1443.12	441.573	233.034	1444.93	487.096
